<svg width="32" height="33" viewBox="0 0 32 33" fill="none" xmlns="http://www.w3.org/2000/svg">
<circle cx="16" cy="16.5" r="16" fill="#022648"/>
<path d="M22.2063 19.8875C22.0938 19.8938 21.9875 19.8938 21.875 19.8938C20.0562 19.8938 18.3438 19.1875 17.0563 17.9C15.7688 16.6125 15.0625 14.9 15.0625 13.0813C15.0625 12.0438 15.2937 11.0437 15.725 10.1375C15.9187 9.7375 16.15 9.35625 16.4187 9C15.9437 9.05 15.4875 9.15 15.0437 9.2875C12.1187 10.2125 10 12.9438 10 16.175C10 20.1625 13.2312 23.3938 17.2187 23.3938C19.425 23.3938 21.3937 22.4062 22.7187 20.85C23.0187 20.4937 23.2937 20.1062 23.5188 19.6937C23.0938 19.8 22.6562 19.8687 22.2063 19.8875Z" fill="#F1FAF0"/>
</svg>
