<svg width="33" height="32" viewBox="0 0 33 32" fill="none" xmlns="http://www.w3.org/2000/svg">
<circle cx="16.5" cy="16" r="16" fill="#022648"/>
<path d="M23.3998 10.8714L23.399 10.8711C23.1015 10.7887 22.5329 10.7179 21.8038 10.6628C21.0893 10.6089 20.2624 10.5727 19.4745 10.5484C18.6874 10.5242 17.9434 10.5121 17.3959 10.5061C17.1222 10.503 16.8979 10.5015 16.7422 10.5008L16.5624 10.5001L16.5156 10.5L16.5038 10.5L16.5009 10.5L16.5002 10.5H16.5L16.5 10L16.5 10.5H16.4998L16.4991 10.5L16.4962 10.5L16.4844 10.5L16.4376 10.5001L16.2578 10.5008C16.1021 10.5015 15.8778 10.503 15.6041 10.5061C15.0566 10.5121 14.3126 10.5242 13.5255 10.5484C12.7376 10.5727 11.9107 10.6089 11.1962 10.6628C10.4671 10.7179 9.89848 10.7887 9.60103 10.8711L9.60017 10.8714C9.00464 11.0354 8.52424 11.5242 8.35975 12.1599L23.3998 10.8714ZM23.3998 10.8714C23.9954 11.0354 24.4758 11.5243 24.6403 12.1599M23.3998 10.8714L24.6403 12.1599M16.5 23L16.5 22.5H16.4998H16.4991L16.4962 22.5L16.4844 22.5L16.4376 22.4999L16.2578 22.4992C16.1021 22.4985 15.8778 22.497 15.6041 22.4939C15.0566 22.4879 14.3126 22.4758 13.5255 22.4516C12.7376 22.4273 11.9107 22.3911 11.1962 22.3372C10.4671 22.2821 9.89848 22.2114 9.60103 22.1289L9.60017 22.1286C8.99574 21.9622 8.52191 21.4938 8.35975 20.8672L16.5 23ZM16.5 23L16.5 22.5H16.5002H16.5009L16.5038 22.5L16.5156 22.5L16.5624 22.4999L16.7422 22.4992C16.8979 22.4985 17.1222 22.497 17.3959 22.4939C17.9434 22.4879 18.6874 22.4758 19.4745 22.4516C20.2624 22.4273 21.0893 22.3911 21.8038 22.3372C22.5329 22.2821 23.1015 22.2114 23.399 22.1289L23.3998 22.1286C24.0035 21.9624 24.4781 21.4911 24.6404 20.8667C24.8139 20.1956 24.9066 19.123 24.9537 18.1834C24.9768 17.7207 24.9884 17.3023 24.9942 16.9996C24.9971 16.8483 24.9986 16.7262 24.9993 16.6421L24.9999 16.5459L25 16.5213L25 16.5153L25 16.5139V16.5135V16.5132L25 16.5118L25 16.5058L24.9999 16.4812L24.9993 16.3849C24.9986 16.3009 24.9971 16.1788 24.9942 16.0275C24.9884 15.7248 24.9768 15.3064 24.9537 14.8437C24.9066 13.9039 24.8138 12.831 24.6403 12.1599M16.5 23L24.6403 12.1599M8 16.5132L8 16.5135V16.5135V16.5136V16.5136L8 16.5138L8 16.5153L8.00001 16.5213L8.00009 16.5458L8.00072 16.6421C8.00144 16.7262 8.00288 16.8483 8.00578 16.9996C8.01158 17.3023 8.02318 17.7207 8.04634 18.1834C8.09338 19.1232 8.18615 20.1961 8.35974 20.8672L8 16.5132ZM8 16.5132L8 16.5118M8 16.5132L8 16.5118M8 16.5118L8.00001 16.5058M8 16.5118L8.00001 16.5058M8.00001 16.5058L8.00009 16.4812M8.00001 16.5058L8.00009 16.4812M8.00009 16.4812L8.00072 16.3849M8.00009 16.4812L8.00072 16.3849M8.00072 16.3849C8.00144 16.3009 8.00288 16.1788 8.00578 16.0275M8.00072 16.3849L8.00578 16.0275M8.00578 16.0275C8.01158 15.7248 8.02318 15.3064 8.04634 14.8437M8.00578 16.0275L8.04634 14.8437M8.04634 14.8437C8.09338 13.9039 8.18615 12.831 8.35974 12.1599L8.04634 14.8437ZM14.1611 19.2625V20.1339L14.9134 19.6942L19.6161 16.9452L20.3546 16.5135L19.6161 16.0819L14.9134 13.3329L14.1611 12.8931V13.7646V19.2625Z" stroke="#F1FAF0"/>
</svg>
